<svg width="199" height="37" viewBox="0 0 199 37" fill="none" xmlns="http://www.w3.org/2000/svg">
<path d="M13.148 27.252C10.82 27.252 8.696 26.712 6.776 25.632C4.856 24.528 3.332 23.004 2.204 21.06C1.1 19.092 0.548 16.884 0.548 14.436C0.548 11.988 1.1 9.792 2.204 7.848C3.332 5.88 4.856 4.356 6.776 3.276C8.696 2.172 10.82 1.62 13.148 1.62C15.5 1.62 17.636 2.172 19.556 3.276C21.476 4.356 22.988 5.868 24.092 7.812C25.196 9.756 25.748 11.964 25.748 14.436C25.748 16.908 25.196 19.116 24.092 21.06C22.988 23.004 21.476 24.528 19.556 25.632C17.636 26.712 15.5 27.252 13.148 27.252ZM13.148 24.408C14.9 24.408 16.472 24 17.864 23.184C19.28 22.368 20.384 21.204 21.176 19.692C21.992 18.18 22.4 16.428 22.4 14.436C22.4 12.42 21.992 10.668 21.176 9.18C20.384 7.668 19.292 6.504 17.9 5.688C16.508 4.872 14.924 4.464 13.148 4.464C11.372 4.464 9.788 4.872 8.396 5.688C7.004 6.504 5.9 7.668 5.084 9.18C4.292 10.668 3.896 12.42 3.896 14.436C3.896 16.428 4.292 18.18 5.084 19.692C5.9 21.204 7.004 22.368 8.396 23.184C9.812 24 11.396 24.408 13.148 24.408ZM49.5848 7.272L37.7048 36.288H34.3208L38.2088 26.784L30.2528 7.272H33.8888L40.0808 23.256L46.2008 7.272H49.5848ZM54.1739 17.064C54.1739 15.048 54.5819 13.284 55.3979 11.772C56.2139 10.236 57.3299 9.048 58.7459 8.208C60.1859 7.368 61.7819 6.948 63.5339 6.948C65.2619 6.948 66.7619 7.32 68.0339 8.064C69.3059 8.808 70.2539 9.744 70.8779 10.872V7.272H74.1899V27H70.8779V23.328C70.2299 24.48 69.2579 25.44 67.9619 26.208C66.6899 26.952 65.2019 27.324 63.4979 27.324C61.7459 27.324 60.1619 26.892 58.7459 26.028C57.3299 25.164 56.2139 23.952 55.3979 22.392C54.5819 20.832 54.1739 19.056 54.1739 17.064ZM70.8779 17.1C70.8779 15.612 70.5779 14.316 69.9779 13.212C69.3779 12.108 68.5619 11.268 67.5299 10.692C66.5219 10.092 65.4059 9.792 64.1819 9.792C62.9579 9.792 61.8419 10.08 60.8339 10.656C59.8259 11.232 59.0219 12.072 58.4219 13.176C57.8219 14.28 57.5219 15.576 57.5219 17.064C57.5219 18.576 57.8219 19.896 58.4219 21.024C59.0219 22.128 59.8259 22.98 60.8339 23.58C61.8419 24.156 62.9579 24.444 64.1819 24.444C65.4059 24.444 66.5219 24.156 67.5299 23.58C68.5619 22.98 69.3779 22.128 69.9779 21.024C70.5779 19.896 70.8779 18.588 70.8779 17.1ZM93.2621 27L85.5221 18.288V27H82.2461V0.36H85.5221V16.02L93.1181 7.272H97.6901L88.4021 17.1L97.7261 27H93.2621ZM111.897 27.324C110.049 27.324 108.369 26.904 106.857 26.064C105.369 25.224 104.193 24.036 103.329 22.5C102.489 20.94 102.069 19.14 102.069 17.1C102.069 15.084 102.501 13.308 103.365 11.772C104.253 10.212 105.453 9.024 106.965 8.208C108.477 7.368 110.169 6.948 112.041 6.948C113.913 6.948 115.605 7.368 117.117 8.208C118.629 9.024 119.817 10.2 120.681 11.736C121.569 13.272 122.013 15.06 122.013 17.1C122.013 19.14 121.557 20.94 120.645 22.5C119.757 24.036 118.545 25.224 117.009 26.064C115.473 26.904 113.769 27.324 111.897 27.324ZM111.897 24.444C113.073 24.444 114.177 24.168 115.209 23.616C116.241 23.064 117.069 22.236 117.693 21.132C118.341 20.028 118.665 18.684 118.665 17.1C118.665 15.516 118.353 14.172 117.729 13.068C117.105 11.964 116.289 11.148 115.281 10.62C114.273 10.068 113.181 9.792 112.005 9.792C110.805 9.792 109.701 10.068 108.693 10.62C107.709 11.148 106.917 11.964 106.317 13.068C105.717 14.172 105.417 15.516 105.417 17.1C105.417 18.708 105.705 20.064 106.281 21.168C106.881 22.272 107.673 23.1 108.657 23.652C109.641 24.18 110.721 24.444 111.897 24.444ZM127.617 17.064C127.617 15.048 128.025 13.284 128.841 11.772C129.657 10.236 130.773 9.048 132.189 8.208C133.629 7.368 135.237 6.948 137.013 6.948C138.549 6.948 139.977 7.308 141.297 8.028C142.617 8.724 143.625 9.648 144.321 10.8V0.36H147.633V27H144.321V23.292C143.673 24.468 142.713 25.44 141.441 26.208C140.169 26.952 138.681 27.324 136.977 27.324C135.225 27.324 133.629 26.892 132.189 26.028C130.773 25.164 129.657 23.952 128.841 22.392C128.025 20.832 127.617 19.056 127.617 17.064ZM144.321 17.1C144.321 15.612 144.021 14.316 143.421 13.212C142.821 12.108 142.005 11.268 140.973 10.692C139.965 10.092 138.849 9.792 137.625 9.792C136.401 9.792 135.285 10.08 134.277 10.656C133.269 11.232 132.465 12.072 131.865 13.176C131.265 14.28 130.965 15.576 130.965 17.064C130.965 18.576 131.265 19.896 131.865 21.024C132.465 22.128 133.269 22.98 134.277 23.58C135.285 24.156 136.401 24.444 137.625 24.444C138.849 24.444 139.965 24.156 140.973 23.58C142.005 22.98 142.821 22.128 143.421 21.024C144.021 19.896 144.321 18.588 144.321 17.1ZM164.293 27.324C162.445 27.324 160.765 26.904 159.253 26.064C157.765 25.224 156.589 24.036 155.725 22.5C154.885 20.94 154.465 19.14 154.465 17.1C154.465 15.084 154.897 13.308 155.761 11.772C156.649 10.212 157.849 9.024 159.361 8.208C160.873 7.368 162.565 6.948 164.437 6.948C166.309 6.948 168.001 7.368 169.513 8.208C171.025 9.024 172.213 10.2 173.077 11.736C173.965 13.272 174.409 15.06 174.409 17.1C174.409 19.14 173.953 20.94 173.041 22.5C172.153 24.036 170.941 25.224 169.405 26.064C167.869 26.904 166.165 27.324 164.293 27.324ZM164.293 24.444C165.469 24.444 166.573 24.168 167.605 23.616C168.637 23.064 169.465 22.236 170.089 21.132C170.737 20.028 171.061 18.684 171.061 17.1C171.061 15.516 170.749 14.172 170.125 13.068C169.501 11.964 168.685 11.148 167.677 10.62C166.669 10.068 165.577 9.792 164.401 9.792C163.201 9.792 162.097 10.068 161.089 10.62C160.105 11.148 159.313 11.964 158.713 13.068C158.113 14.172 157.813 15.516 157.813 17.1C157.813 18.708 158.101 20.064 158.677 21.168C159.277 22.272 160.069 23.1 161.053 23.652C162.037 24.18 163.117 24.444 164.293 24.444ZM190.848 6.912C193.248 6.912 195.192 7.644 196.68 9.108C198.168 10.548 198.912 12.636 198.912 15.372V27H195.672V15.84C195.672 13.872 195.18 12.372 194.196 11.34C193.212 10.284 191.868 9.756 190.164 9.756C188.436 9.756 187.056 10.296 186.024 11.376C185.016 12.456 184.512 14.028 184.512 16.092V27H181.236V7.272H184.512V10.08C185.16 9.072 186.036 8.292 187.14 7.74C188.268 7.188 189.504 6.912 190.848 6.912Z" fill="white"/>
</svg>
